<svg width="56" height="56" viewBox="0 0 56 56" fill="none" xmlns="http://www.w3.org/2000/svg">
<g clip-path="url(#clip0_545_905)">
<path d="M44.3333 2.33325H11.6667C8.57361 2.33696 5.6083 3.56731 3.42118 5.75443C1.23406 7.94155 0.003705 10.9069 0 13.9999L0 41.9999C0.003705 45.093 1.23406 48.0583 3.42118 50.2454C5.6083 52.4325 8.57361 53.6629 11.6667 53.6666H44.3333C47.4264 53.6629 50.3917 52.4325 52.5788 50.2454C54.7659 48.0583 55.9963 45.093 56 41.9999V13.9999C55.9963 10.9069 54.7659 7.94155 52.5788 5.75443C50.3917 3.56731 47.4264 2.33696 44.3333 2.33325ZM11.6667 6.99992H44.3333C45.7305 7.00267 47.0949 7.42345 48.2509 8.20813C49.4069 8.9928 50.3017 10.1055 50.82 11.4029L32.9513 29.2739C31.6363 30.5837 29.856 31.319 28 31.319C26.144 31.319 24.3637 30.5837 23.0487 29.2739L5.18 11.4029C5.69835 10.1055 6.5931 8.9928 7.74911 8.20813C8.90512 7.42345 10.2695 7.00267 11.6667 6.99992ZM44.3333 48.9999H11.6667C9.81015 48.9999 8.02967 48.2624 6.71692 46.9497C5.40416 45.6369 4.66667 43.8564 4.66667 41.9999V17.4999L19.7493 32.5733C21.9395 34.7579 24.9066 35.9847 28 35.9847C31.0934 35.9847 34.0605 34.7579 36.2507 32.5733L51.3333 17.4999V41.9999C51.3333 43.8564 50.5958 45.6369 49.2831 46.9497C47.9703 48.2624 46.1898 48.9999 44.3333 48.9999Z" fill="#22333B"/>
</g>
<defs>
<clipPath id="clip0_545_905">
<rect width="56" height="56" fill="white"/>
</clipPath>
</defs>
</svg>
