<svg xmlns="http://www.w3.org/2000/svg" viewBox="0 0 450 450"><defs><style>.cls-1{fill:#22333b;}</style></defs><g id="Capa_2" data-name="Capa 2"><path class="cls-1" d="M334.21,26V88.88c0-.64-38.93.19-42.08.75-9.09,1.64-18.08,5.73-23.82,13-6,7.52-7.81,17.54-8,27.14-.37,15.59.14,31.29.14,46.89h70.83l-11.33,73.82h-59.5V428.87l-79.78,0V250.43H115.79V176.62h64.84c-1.91,0-.06-58.82.36-64,1.34-16.92,2.78-33.34,12.25-47.94,8.81-13.57,20.22-25.41,34.91-32.56,15.23-7.41,32.31-10.43,49.24-10.88a240.75,240.75,0,0,1,31.07,1.44C310.49,22.85,334.21,24.81,334.21,26Z"/></g></svg>