<svg width="55" height="56" viewBox="0 0 55 56" fill="none" xmlns="http://www.w3.org/2000/svg">
<g clip-path="url(#clip0_545_973)">
<path d="M27.5 5.04467C34.8425 5.04467 35.7133 5.07267 38.6123 5.208C41.6098 5.348 44.6967 6.04333 46.8806 8.267C49.0852 10.5117 49.7475 13.6243 49.885 16.6857C50.0179 19.6373 50.0454 20.524 50.0454 28C50.0454 35.476 50.0179 36.3627 49.885 39.3143C49.7498 42.35 49.0508 45.5233 46.8806 47.733C44.676 49.9777 41.6213 50.652 38.6123 50.792C35.7133 50.9273 34.8425 50.9553 27.5 50.9553C20.1575 50.9553 19.2867 50.9273 16.3877 50.792C13.4292 50.6543 10.2713 49.9263 8.11938 47.733C5.92625 45.5 5.2525 42.357 5.115 39.3143C4.98208 36.3627 4.95458 35.476 4.95458 28C4.95458 20.524 4.98208 19.6373 5.115 16.6857C5.25021 13.6617 5.95604 10.4697 8.11938 8.267C10.3194 6.027 13.3879 5.348 16.3877 5.208C19.2867 5.07267 20.1575 5.04467 27.5 5.04467ZM27.5 0C20.0315 0 19.0942 0.0326667 16.1608 0.168C11.9098 0.366333 7.68854 1.57033 4.61542 4.69933C1.53083 7.84 0.359792 12.1287 0.165 16.4547C0.0320833 19.4413 0 20.3957 0 28C0 35.6043 0.0320833 36.5587 0.165 39.5453C0.359792 43.869 1.54688 48.1787 4.61542 51.3007C7.69771 54.439 11.9167 55.6337 16.1608 55.832C19.0942 55.9673 20.0315 56 27.5 56C34.9685 56 35.9058 55.9673 38.8392 55.832C43.0879 55.6337 47.3138 54.4273 50.3846 51.3007C53.4715 48.1577 54.6402 43.8713 54.835 39.5453C54.9679 36.5587 55 35.6043 55 28C55 20.3957 54.9679 19.4413 54.835 16.4547C54.6402 12.1263 53.4554 7.826 50.3846 4.69933C47.3069 1.56567 43.0765 0.364 38.8392 0.168C35.9058 0.0326667 34.9685 0 27.5 0Z" fill="#22333B"/>
<path d="M27.5002 13.6221C19.7016 13.6221 13.3789 20.0597 13.3789 28.0001C13.3789 35.9404 19.7016 42.3781 27.5002 42.3781C35.2987 42.3781 41.6214 35.9404 41.6214 28.0001C41.6214 20.0597 35.2987 13.6221 27.5002 13.6221ZM27.5002 37.3334C22.4379 37.3334 18.3335 33.1544 18.3335 28.0001C18.3335 22.8457 22.4379 18.6667 27.5002 18.6667C32.5624 18.6667 36.6668 22.8457 36.6668 28.0001C36.6668 33.1544 32.5624 37.3334 27.5002 37.3334Z" fill="#22333B"/>
<path d="M42.1809 16.4126C44.0034 16.4126 45.4809 14.9083 45.4809 13.0526C45.4809 11.197 44.0034 9.69263 42.1809 9.69263C40.3583 9.69263 38.8809 11.197 38.8809 13.0526C38.8809 14.9083 40.3583 16.4126 42.1809 16.4126Z" fill="#22333B"/>
</g>
<defs>
<clipPath id="clip0_545_973">
<rect width="55" height="56" fill="white"/>
</clipPath>
</defs>
</svg>
