<svg width="261" height="75" viewBox="0 0 261 75" fill="none" xmlns="http://www.w3.org/2000/svg">
<g clip-path="url(#clip0_147_170)">
<rect width="261" height="75" fill="none"/>
<path d="M33.0063 22.9323C33.8381 24.2474 34.738 25.5036 35.699 26.6956C35.7934 26.8116 35.9664 26.7384 35.9664 26.5796V22.2899C35.9664 22.2507 35.9559 22.215 35.9349 22.1847C35.7497 21.9134 35.5662 21.6386 35.388 21.3585C35.1329 20.9623 35.0036 20.4984 34.9983 20.0327C34.9914 19.5437 35.1224 19.0548 35.388 18.6391C35.5767 18.3446 35.7689 18.0538 35.9664 17.7683C36.1656 17.4721 36.3717 17.1812 36.5796 16.8921C36.6705 16.7672 36.8854 16.8404 36.8854 17.001L36.882 20.0327V35.8228C36.882 35.9174 36.9501 35.9941 37.0357 35.9941H39.4803C39.5659 35.9941 39.634 35.9174 39.634 35.8228V9.45118C39.634 9.30307 39.4802 9.22456 39.3806 9.32092C39.0574 9.63676 38.5087 10.1721 38.2519 10.4326C37.7836 10.909 37.3275 11.398 36.8802 11.9012L36.8487 11.9368C36.6967 12.1081 36.5465 12.283 36.398 12.4579C36.2512 12.6292 36.1079 12.8023 35.9646 12.9754C34.9022 14.2655 33.9132 15.6305 33.0046 17.067C32.9976 17.0777 32.9924 17.0866 32.9872 17.0955C32.4332 17.9735 32.1589 19.0048 32.1642 20.0327C32.1712 21.0391 32.4455 22.0437 32.9872 22.902C32.9924 22.9109 32.9976 22.9216 33.0046 22.9305L33.0063 22.9323Z" fill="#22333B"/>
<path d="M70.4521 39.5171C59.4562 37.4512 49.2552 35.4776 40.8255 27.672C40.7241 27.5779 40.5694 27.656 40.5694 27.8033V31.3174C40.5694 31.3689 40.5925 31.4204 40.6298 31.4541C42.9009 33.3549 45.4138 34.9931 48.0654 36.2816C48.2184 36.3544 48.1703 36.6082 48.0014 36.6082C45.5329 36.6082 42.2393 36.6135 39.6659 36.617H39.6339C29.5948 36.6348 18.3214 36.6312 8.38711 36.6667H4.61865C16.0041 38.6829 26.8898 40.637 35.6414 48.7302C35.7427 48.8242 35.8993 48.7462 35.8993 48.5988V45.0847C35.8993 45.0332 35.8761 44.9818 35.837 44.948C33.566 43.0472 31.0548 41.409 28.4032 40.1205C28.2485 40.0478 28.2983 39.7939 28.4673 39.7939C31.4265 39.7939 36.5715 39.7851 39.6339 39.7815V39.7851H39.6659V39.7815C48.8693 39.7673 58.928 39.7709 68.0815 39.7354H71.8482C71.3751 39.6644 70.9092 39.5899 70.4521 39.5171Z" fill="#22333B"/>
<path d="M43.6715 53.8025C42.8083 52.4879 41.8749 51.2317 40.8748 50.0412C40.7847 49.9349 40.6206 50.0022 40.6206 50.1474V54.4438C40.6206 54.4775 40.6315 54.5111 40.6495 54.5395C40.8405 54.8106 41.0315 55.0852 41.2135 55.3634C41.5829 55.9126 41.6983 56.5965 41.5631 57.2325C41.5001 57.5248 41.3847 57.8083 41.2135 58.0634C41.0207 58.3557 40.8207 58.6427 40.6189 58.928C40.4044 59.2309 40.1864 59.5304 39.9629 59.8245C39.8764 59.9396 39.7034 59.8741 39.7034 59.7253L39.671 57.2325V41.0462C39.671 40.9506 39.5989 40.8726 39.5106 40.8726H36.9787C36.8976 40.8726 36.8328 40.9435 36.8328 41.0303V67.1983C36.8328 67.333 36.9787 67.4056 37.0742 67.317C37.4761 66.9591 37.869 66.5871 38.2564 66.2079C38.7393 65.7366 39.2115 65.2512 39.671 64.7516C39.6818 64.7392 39.6926 64.7268 39.7034 64.7162C39.862 64.5461 40.0152 64.3724 40.1701 64.1988C40.3197 64.0287 40.4693 63.8569 40.6171 63.685C41.7127 62.4041 42.7309 61.0487 43.6679 59.6225C43.6751 59.6119 43.6805 59.603 43.6877 59.5924C44.1544 58.8801 44.4302 58.0634 44.5112 57.2307C44.6248 56.0526 44.3509 54.8371 43.6877 53.829C43.6805 53.8184 43.6751 53.8096 43.6679 53.8007L43.6715 53.8025Z" fill="#22333B"/>
<path d="M254.992 47.43L236.288 10.7836C236.132 10.477 235.648 10.4724 235.484 10.7766L215.754 47.4254C215.609 47.6878 215.825 47.9944 216.153 47.9944H218.144C218.314 47.9944 218.47 47.9085 218.544 47.7691L222.277 40.8361C222.351 40.699 222.507 40.6108 222.677 40.6108H243.02C243.195 40.6108 243.351 40.7014 243.424 40.8454L246.956 47.7621C247.027 47.9038 247.185 47.9967 247.36 47.9967H254.586C254.91 47.9967 255.125 47.6948 254.99 47.4323L254.992 47.43ZM235.873 26.0688C235.891 26.099 235.907 26.1246 235.928 26.1524L241.771 37.6053C241.907 37.8678 241.689 38.1674 241.367 38.1674H224.424C224.096 38.1674 223.88 37.8608 224.022 37.5983L231.74 23.2701C231.916 22.9821 232.327 22.4734 232.933 22.6453C233.767 22.8822 234.966 24.5104 235.875 26.0688H235.873Z" fill="#22333B"/>
<path d="M212.654 10.5792H210.165C209.862 10.5792 209.575 10.6884 209.366 10.8812L192.513 26.466C192.329 26.6379 192.017 26.6263 191.849 26.4404L177.737 11.002C177.526 10.7697 177.211 10.635 176.876 10.635H168.877C168.502 10.635 168.296 11.0252 168.532 11.2853L186.777 31.2692C186.919 31.4271 186.908 31.6524 186.752 31.7987L176.667 41.1334C176.667 41.1334 176.66 41.1403 176.653 41.145L176.222 41.5468C176.222 41.5468 176.213 41.5538 176.208 41.5561C176.199 41.5631 176.19 41.57 176.18 41.5793L176.027 41.721C176.027 41.721 176.02 41.728 176.015 41.728C174.256 43.1587 171.919 44.0297 169.354 44.0297C165.83 44.0297 162.936 42.3922 161.175 39.907C161.171 39.9001 160.016 38.1604 159.584 37.2871L159.465 37.0479L154.298 26.8283L146.117 10.7976C145.964 10.491 145.477 10.4863 145.314 10.7906L125.583 47.4347C125.441 47.6994 125.657 48.006 125.983 48.006H127.976C128.143 48.006 128.302 47.9201 128.375 47.7784L132.107 40.8477C132.182 40.7107 132.338 40.6224 132.506 40.6224H152.852C152.939 40.6224 153.02 40.6433 153.088 40.6851C153.109 40.6967 153.127 40.7107 153.146 40.7269C153.24 40.8941 153.339 41.0591 153.44 41.2193L153.58 41.4934C155.846 44.9169 159.745 47.3766 164.316 48.0037H164.404C164.429 48.0083 164.454 48.0107 164.477 48.013H164.482C165.191 48.1059 165.924 48.1546 166.661 48.1546C167.398 48.1546 168.098 48.1082 168.794 48.0223C168.842 48.0153 168.893 48.0107 168.941 48.0014C168.961 48.0014 168.978 47.9944 168.998 47.9944C172.201 47.5485 175.071 46.206 177.28 44.2619C177.459 44.1063 177.634 43.9438 177.804 43.7765C177.82 43.7649 177.834 43.751 177.845 43.737L188.504 33.8752C188.69 33.7033 189.002 33.7149 189.17 33.9007L201.654 47.6344C201.865 47.869 202.179 48.0037 202.515 48.0037H210.514C210.889 48.0037 211.095 47.6135 210.859 47.3534L194.242 29.0696C194.097 28.914 194.109 28.6864 194.267 28.5401L212.971 11.2435C213.242 10.9903 213.045 10.5676 212.65 10.5676L212.654 10.5792ZM145.706 26.0874C145.725 26.1153 145.741 26.1408 145.759 26.1687L151.605 37.6216C151.738 37.8863 151.522 38.186 151.201 38.186H134.256C133.93 38.186 133.714 37.8794 133.856 37.6146L141.573 23.2863C141.75 22.9983 142.159 22.4897 142.767 22.6639C143.601 22.9008 144.799 24.5266 145.709 26.0874H145.706Z" fill="#22333B"/>
<path d="M120.334 10.5607H118.401C118.155 10.5607 117.956 10.7395 117.956 10.9578V35.4731C117.956 35.8424 117.451 36.012 117.177 35.7333C114.126 32.621 109.088 29.2949 102.156 25.8249C97.3825 23.4326 92.7237 20.6594 88.8777 17.1476C87.7664 16.1326 86.7698 15.0503 85.6952 14.0167C84.0971 12.4768 82.4853 10.9439 81.0525 9.27856V47.4114C81.0525 47.6321 81.2523 47.8109 81.4957 47.8109H83.429C83.6747 47.8109 83.8721 47.6321 83.8721 47.4114V23.1098C83.8721 22.7544 84.3543 22.5802 84.6322 22.8334C87.9478 25.8621 93.1186 29.0069 100.928 32.7812C105.763 35.1874 110.098 38.0954 113.963 41.6327C116.364 43.8346 118.523 46.3105 120.773 48.6447V10.9578C120.773 10.7372 120.573 10.5607 120.328 10.5607H120.334Z" fill="#22333B"/>
<path d="M84.864 12.7509L85.0615 12.6649L85.0409 12.6278L84.8434 12.7161L84.864 12.7509Z" fill="#22333B"/>
<path d="M80.9331 67.1654V56.191H85.7435C87.8674 56.191 89.0269 57.3848 89.0269 59.2569C89.0269 61.1289 87.8674 62.339 85.7435 62.339H81.987V67.1654H80.9331ZM81.987 61.5052H85.7435C87.1487 61.5052 87.9041 60.7201 87.9041 59.6331V58.8783C87.9041 57.8099 87.1487 57.0225 85.7435 57.0225H81.987V61.5052Z" fill="#22333B"/>
<path d="M104.528 62.0069H97.805V67.1631H96.751V56.1887H97.805V61.173H104.528V56.1887H105.582V67.1631H104.528V62.0069Z" fill="#22333B"/>
<path d="M113.694 61.6771C113.694 57.9655 115.591 56.0005 118.716 56.0005C121.841 56.0005 123.719 57.9655 123.719 61.6771C123.719 65.3886 121.822 67.3536 118.716 67.3536C115.609 67.3536 113.694 65.3886 113.694 61.6771ZM122.596 62.3692V60.9849C122.596 58.3743 121.051 56.8506 118.716 56.8506C116.381 56.8506 114.819 58.3766 114.819 60.9849V62.3692C114.819 64.9798 116.364 66.5034 118.716 66.5034C121.067 66.5034 122.596 64.9775 122.596 62.3692Z" fill="#22333B"/>
<path d="M135.289 57.0225V67.1631H134.235V57.0225H130.127V56.1887H139.397V57.0225H135.289Z" fill="#22333B"/>
<path d="M145.807 61.6771C145.807 57.9655 147.704 56.0005 150.829 56.0005C153.954 56.0005 155.832 57.9655 155.832 61.6771C155.832 65.3886 153.936 67.3536 150.829 67.3536C147.722 67.3536 145.807 65.3886 145.807 61.6771ZM154.71 62.3692V60.9849C154.71 58.3743 153.164 56.8506 150.829 56.8506C148.494 56.8506 146.933 58.3766 146.933 60.9849V62.3692C146.933 64.9798 148.478 66.5034 150.829 66.5034C153.18 66.5034 154.71 64.9775 154.71 62.3692Z" fill="#22333B"/>
<path d="M171.861 65.4838C171.423 66.601 170.158 67.3559 168.263 67.3559C165.244 67.3559 163.313 65.3909 163.313 61.6794C163.313 57.9678 165.226 56.0029 168.335 56.0029C170.424 56.0029 171.882 56.9459 172.619 58.3464L171.758 58.8016C171.161 57.5915 169.951 56.853 168.335 56.853C165.965 56.853 164.438 58.3928 164.438 61.0035V62.339C164.438 64.9659 165.949 66.5058 168.424 66.5058C170.286 66.5058 171.866 65.6255 171.866 63.8324V62.5109H169.005V61.6933H172.902V67.1654H171.919V65.4838H171.861Z" fill="#22333B"/>
<path d="M181.22 67.1654V56.191H186.031C188.12 56.191 189.314 57.3221 189.314 59.2406C189.314 60.9222 188.366 62.0394 186.612 62.2438L189.631 67.1654H188.455L185.523 62.3065H182.277V67.1654H181.22ZM186.031 61.5052C187.436 61.5052 188.191 60.7201 188.191 59.6331V58.8783C188.191 57.8099 187.436 57.0225 186.031 57.0225H182.274V61.5029H186.031V61.5052Z" fill="#22333B"/>
<path d="M205.325 67.1654L203.991 63.7535H198.777L197.442 67.1654H196.389L200.726 56.191H202.078L206.432 67.1654H205.325ZM201.41 57.0876H201.339L199.038 62.9359H203.709L201.408 57.0876H201.41Z" fill="#22333B"/>
<path d="M213.894 67.1654V56.191H218.704C220.828 56.191 221.988 57.3848 221.988 59.2569C221.988 61.1289 220.828 62.339 218.704 62.339H214.948V67.1654H213.894ZM214.948 61.5052H218.704C220.11 61.5052 220.865 60.7201 220.865 59.6331V58.8783C220.865 57.8099 220.11 57.0225 218.704 57.0225H214.948V61.5052Z" fill="#22333B"/>
<path d="M237.491 62.0069H230.768V67.1631H229.714V56.1887H230.768V61.173H237.491V56.1887H238.545V67.1631H237.491V62.0069Z" fill="#22333B"/>
<path d="M250.062 67.1654V62.7153L245.831 56.191H247.025L250.572 61.7258H250.625L254.173 56.191H255.367L251.119 62.6688V67.1654H250.062Z" fill="#22333B"/>
</g>
<defs>
<clipPath id="clip0_147_170">
<rect width="261" height="75" fill="none"/>
</clipPath>
</defs>
</svg>
