<svg width="58" height="58" viewBox="0 0 58 58" fill="none" xmlns="http://www.w3.org/2000/svg">
<g clip-path="url(#clip0_545_907)">
<path d="M55.8084 40.4525C57.2088 41.8569 57.9953 43.7593 57.9953 45.7426C57.9953 47.7259 57.2088 49.6283 55.8084 51.0327L53.6092 53.5678C33.8167 72.5169 -14.3475 24.3648 4.30921 4.50945L7.08837 2.09279C8.49432 0.731423 10.3797 -0.0216783 12.3367 -0.00358771C14.2936 0.0145029 16.1648 0.802331 17.5453 2.18945C17.6202 2.26437 22.0983 8.08129 22.0983 8.08129C23.427 9.47722 24.1667 11.3315 24.1636 13.2588C24.1604 15.186 23.4147 17.0379 22.0814 18.4295L19.2829 21.9481C20.8316 25.7111 23.1086 29.1311 25.9831 32.0114C28.8576 34.8917 32.2729 37.1756 36.0328 38.7319L39.5732 35.9165C40.965 34.5842 42.8165 33.8393 44.7432 33.8366C46.6698 33.8339 48.5234 34.5736 49.9189 35.902C49.9189 35.902 55.7334 40.3776 55.8084 40.4525ZM52.483 43.9664C52.483 43.9664 46.6999 39.5173 46.625 39.4424C46.1272 38.9487 45.4544 38.6717 44.7533 38.6717C44.0522 38.6717 43.3795 38.9487 42.8816 39.4424C42.8164 39.51 37.942 43.3936 37.942 43.3936C37.6135 43.6551 37.2225 43.8265 36.8077 43.8909C36.3928 43.9553 35.9683 43.9105 35.576 43.761C30.7051 41.9474 26.2809 39.1082 22.603 35.4357C18.925 31.7632 16.0793 27.3432 14.2586 22.475C14.0972 22.0773 14.0446 21.6438 14.1061 21.2191C14.1677 20.7944 14.3413 20.3937 14.609 20.0583C14.609 20.0583 18.4926 15.1815 18.5579 15.1186C19.0515 14.6208 19.3285 13.948 19.3285 13.2469C19.3285 12.5458 19.0515 11.8731 18.5579 11.3752C18.483 11.3027 14.0339 5.51479 14.0339 5.51479C13.5285 5.06168 12.869 4.81902 12.1906 4.83654C11.5121 4.85407 10.866 5.13045 10.3847 5.60904L7.60554 8.0257C-6.02929 24.4204 35.709 63.8435 50.076 50.2666L52.2776 47.7291C52.7935 47.2513 53.1034 46.5915 53.1417 45.8893C53.1801 45.1871 52.9439 44.4976 52.483 43.9664Z" fill="#22333B"/>
</g>
<defs>
<clipPath id="clip0_545_907">
<rect width="58" height="58" fill="white"/>
</clipPath>
</defs>
</svg>
