<svg width="57" height="56" viewBox="0 0 57 56" fill="none" xmlns="http://www.w3.org/2000/svg">
<g clip-path="url(#clip0_545_909)">
<path d="M28.5 14C26.6211 14 24.7844 14.5474 23.2221 15.573C21.6598 16.5985 20.4422 18.0562 19.7231 19.7616C19.0041 21.4671 18.816 23.3437 19.1825 25.1542C19.5491 26.9647 20.4539 28.6277 21.7825 29.933C23.1111 31.2383 24.8038 32.1272 26.6466 32.4873C28.4895 32.8475 30.3996 32.6626 32.1355 31.9562C33.8714 31.2498 35.3551 30.0535 36.399 28.5187C37.4428 26.9838 38 25.1793 38 23.3333C38 20.858 36.9991 18.484 35.2175 16.7337C33.4359 14.9833 31.0196 14 28.5 14ZM28.5 28C27.5605 28 26.6422 27.7263 25.861 27.2135C25.0799 26.7007 24.4711 25.9719 24.1116 25.1192C23.7521 24.2665 23.658 23.3282 23.8413 22.4229C24.0246 21.5177 24.4769 20.6861 25.1412 20.0335C25.8055 19.3809 26.6519 18.9364 27.5733 18.7563C28.4947 18.5763 29.4498 18.6687 30.3178 19.0219C31.1857 19.3751 31.9276 19.9732 32.4495 20.7407C32.9714 21.5081 33.25 22.4104 33.25 23.3333C33.25 24.571 32.7496 25.758 31.8588 26.6332C30.968 27.5083 29.7598 28 28.5 28Z" fill="#22333B"/>
<path d="M28.4998 56C26.4999 56.0101 24.5267 55.5493 22.7453 54.6562C20.9639 53.763 19.4263 52.4636 18.2611 50.8667C9.21002 38.6004 4.61914 29.379 4.61914 23.457C4.61914 17.2346 7.13513 11.267 11.6136 6.86713C16.0921 2.46721 22.1662 -0.00463867 28.4998 -0.00463867C34.8333 -0.00463867 40.9074 2.46721 45.3859 6.86713C49.8644 11.267 52.3804 17.2346 52.3804 23.457C52.3804 29.379 47.7895 38.6004 38.7384 50.8667C37.5732 52.4636 36.0356 53.763 34.2542 54.6562C32.4729 55.5493 30.4996 56.0101 28.4998 56ZM28.4998 5.08903C23.5418 5.09459 18.7884 7.03206 15.2826 10.4764C11.7767 13.9207 9.80467 18.5907 9.79902 23.4617C9.79902 28.1517 14.2949 36.8247 22.4554 47.8824C23.1482 48.8199 24.057 49.5829 25.1076 50.109C26.1582 50.6351 27.3206 50.9094 28.4998 50.9094C29.6789 50.9094 30.8414 50.6351 31.8919 50.109C32.9425 49.5829 33.8514 48.8199 34.5441 47.8824C42.7046 36.8247 47.2005 28.1517 47.2005 23.4617C47.1949 18.5907 45.2228 13.9207 41.7169 10.4764C38.2111 7.03206 33.4578 5.09459 28.4998 5.08903Z" fill="#22333B"/>
</g>
<defs>
<clipPath id="clip0_545_909">
<rect width="57" height="56" fill="white"/>
</clipPath>
</defs>
</svg>
