<svg width="58" height="56" viewBox="0 0 58 56" fill="none" xmlns="http://www.w3.org/2000/svg">
<g clip-path="url(#clip0_545_978)">
<path fill-rule="evenodd" clip-rule="evenodd" d="M49.4522 8.13867C44.0244 2.89333 36.8082 0.00233333 29.1208 0C13.2795 0 0.386612 12.446 0.379362 27.748C0.376945 32.6387 1.70128 37.4127 4.21703 41.622L0.137695 56L15.3724 52.1407C19.5701 54.3527 24.2971 55.517 29.1063 55.5193H29.1184C44.9572 55.5193 57.8525 43.071 57.8598 27.769C57.8646 20.356 54.8776 13.3817 49.4522 8.13867ZM29.1208 50.8317H29.1111C24.8239 50.8317 20.6214 49.7187 16.9529 47.6163L16.0804 47.117L7.0397 49.406L9.45395 40.894L8.88603 40.0213C6.49353 36.3487 5.23203 32.1043 5.23445 27.748C5.23928 15.0313 15.9572 4.68533 29.1329 4.68533C35.5129 4.68533 41.511 7.08867 46.0205 11.4473C50.53 15.8083 53.0119 21.602 53.0095 27.7643C53.0023 40.4857 42.2868 50.8317 29.1208 50.8317ZM42.2239 33.558C41.5062 33.2103 37.9754 31.5327 37.3157 31.3017C36.6584 31.0707 36.1799 30.954 35.6989 31.647C35.218 32.34 33.8454 33.9033 33.4249 34.3677C33.0068 34.8297 32.5863 34.888 31.8685 34.5403C31.1508 34.1927 28.8356 33.4623 26.0927 31.0987C23.9588 29.26 22.516 26.9897 22.0979 26.2943C21.6799 25.599 22.0544 25.2257 22.4121 24.8803C22.7359 24.57 23.1299 24.0707 23.4899 23.6647C23.8524 23.2633 23.9709 22.974 24.2125 22.5097C24.4518 22.0477 24.3334 21.6417 24.1521 21.294C23.9709 20.9487 22.5354 17.535 21.9384 16.1467C21.356 14.7933 20.7639 14.9777 20.3217 14.9567C19.9036 14.9357 19.4251 14.9333 18.9442 14.9333C18.4657 14.9333 17.6875 15.106 17.0302 15.8013C16.3729 16.4967 14.5169 18.1743 14.5169 21.5857C14.5169 24.9993 17.0906 28.2963 17.4483 28.7583C17.8059 29.2203 22.5112 36.225 29.7153 39.228C31.4287 39.942 32.7675 40.369 33.8091 40.6887C35.5298 41.216 37.0958 41.1413 38.3331 40.964C39.713 40.7657 42.5816 39.2863 43.181 37.667C43.7803 36.0477 43.7803 34.657 43.599 34.37C43.4202 34.0783 42.9417 33.9057 42.2239 33.558Z" fill="#22333B"/>
</g>
<defs>
<clipPath id="clip0_545_978">
<rect width="58" height="56" fill="white"/>
</clipPath>
</defs>
</svg>
