<svg width="61" height="56" viewBox="0 0 61 56" fill="none" xmlns="http://www.w3.org/2000/svg">
<g clip-path="url(#clip0_545_983)">
<mask id="path-1-inside-1_545_983" fill="white">
<path d="M59.7241 14.2674C59.0226 11.8711 56.9562 9.98209 54.3307 9.3409C49.5752 8.17847 30.5 8.17847 30.5 8.17847C30.5 8.17847 11.4248 8.17847 6.66679 9.3409C4.04379 9.98209 1.97742 11.8687 1.27592 14.2674C0 18.6127 0 27.677 0 27.677C0 27.677 0 36.7412 1.27592 41.0865C1.97742 43.4829 4.04379 45.3719 6.66933 46.0131C11.4248 47.1755 30.5 47.1755 30.5 47.1755C30.5 47.1755 49.5752 47.1755 54.3332 46.0131C56.9562 45.3719 59.0226 43.4852 59.7266 41.0865C61 36.7412 61 27.677 61 27.677C61 27.677 61 18.6127 59.7241 14.2674ZM24.2627 35.9086V19.4453L40.2041 27.677L24.2627 35.9086Z"/>
</mask>
<path d="M59.7241 14.2674L19.4157 26.0671L19.4205 26.0837L19.4254 26.1004L59.7241 14.2674ZM54.3307 9.3409L44.3577 50.1397L44.3666 50.1419L54.3307 9.3409ZM30.5 8.17847L30.5 -33.8215H30.5V8.17847ZM6.66679 9.3409L-3.30115 -31.4591L-3.30636 -31.4578L6.66679 9.3409ZM1.27592 14.2674L41.5746 26.1004L41.581 26.0785L41.5874 26.0566L1.27592 14.2674ZM1.27592 41.0865L41.5843 29.2869L41.5795 29.2702L41.5746 29.2536L1.27592 41.0865ZM6.66933 46.0131L16.6423 5.21428L16.6334 5.2121L6.66933 46.0131ZM30.5 47.1755L30.5 5.17549H30.5V47.1755ZM54.3332 46.0131L64.3012 86.8131L64.3064 86.8118L54.3332 46.0131ZM59.7266 41.0865L100.027 52.915L100.029 52.9064L100.032 52.8978L59.7266 41.0865ZM61 27.677L103 27.677V27.677L61 27.677ZM24.2627 35.9086H-17.7373V104.865L43.5329 73.227L24.2627 35.9086ZM24.2627 19.4453L43.5329 -17.8731L-17.7373 -49.5111V19.4453H24.2627ZM40.2041 27.677L59.4742 64.9954L131.745 27.677L59.4742 -9.64142L40.2041 27.677ZM100.033 2.46779C94.7181 -15.6866 80.0478 -27.613 64.2947 -31.46L44.3666 50.1419C33.8646 47.5772 23.3271 39.4287 19.4157 26.0671L100.033 2.46779ZM64.3036 -31.4579C59.0852 -32.7335 53.536 -33.0956 51.389 -33.2385C48.1495 -33.454 44.7047 -33.5813 41.7695 -33.6608C38.7728 -33.742 35.9842 -33.7817 33.9643 -33.8014C32.9467 -33.8113 32.1057 -33.8163 31.5085 -33.8189C31.2096 -33.8202 30.9706 -33.8208 30.8 -33.8212C30.7147 -33.8213 30.6463 -33.8214 30.596 -33.8215C30.5708 -33.8215 30.5502 -33.8215 30.5341 -33.8215C30.5261 -33.8215 30.5192 -33.8215 30.5135 -33.8215C30.5107 -33.8215 30.5081 -33.8215 30.5059 -33.8215C30.5048 -33.8215 30.5033 -33.8215 30.5027 -33.8215C30.5013 -33.8215 30.5 -33.8215 30.5 8.17847C30.5 50.1785 30.4988 50.1785 30.4977 50.1785C30.4974 50.1785 30.4964 50.1785 30.4959 50.1785C30.4948 50.1785 30.4939 50.1785 30.4934 50.1785C30.4923 50.1785 30.4924 50.1785 30.4936 50.1785C30.4959 50.1785 30.5027 50.1785 30.5137 50.1785C30.5359 50.1785 30.5752 50.1786 30.6308 50.1787C30.7419 50.1789 30.9174 50.1794 31.1493 50.1804C31.6139 50.1823 32.3003 50.1864 33.1453 50.1946C34.8506 50.2113 37.1281 50.2443 39.4946 50.3084C41.9226 50.3741 44.1383 50.4648 45.8128 50.5762C48.5799 50.7603 47.1984 50.8341 44.3577 50.1397L64.3036 -31.4579ZM30.5 8.17847C30.5 -33.8215 30.4987 -33.8215 30.4973 -33.8215C30.4967 -33.8215 30.4952 -33.8215 30.4941 -33.8215C30.4919 -33.8215 30.4893 -33.8215 30.4865 -33.8215C30.4808 -33.8215 30.4739 -33.8215 30.4659 -33.8215C30.4498 -33.8215 30.4292 -33.8215 30.404 -33.8215C30.3537 -33.8214 30.2853 -33.8213 30.2 -33.8212C30.0294 -33.8208 29.7904 -33.8202 29.4915 -33.8189C28.8943 -33.8163 28.0533 -33.8113 27.0356 -33.8014C25.0157 -33.7817 22.2271 -33.742 19.2302 -33.6608C16.2949 -33.5813 12.85 -33.454 9.6103 -33.2385C7.46176 -33.0956 1.91498 -32.7335 -3.30115 -31.4591L16.6347 50.1409C13.7976 50.8341 12.4195 50.7603 15.1857 50.5763C16.8608 50.4648 19.0768 50.3741 21.5051 50.3084C23.8717 50.2443 26.1493 50.2113 27.8547 50.1946C28.6997 50.1864 29.3861 50.1823 29.8507 50.1804C30.0826 50.1794 30.2581 50.1789 30.3692 50.1787C30.4248 50.1786 30.4641 50.1785 30.4863 50.1785C30.4973 50.1785 30.5041 50.1785 30.5064 50.1785C30.5076 50.1785 30.5077 50.1785 30.5066 50.1785C30.5061 50.1785 30.5052 50.1785 30.5041 50.1785C30.5036 50.1785 30.5026 50.1785 30.5023 50.1785C30.5012 50.1785 30.5 50.1785 30.5 8.17847ZM-3.30636 -31.4578C-19.041 -27.6115 -33.7209 -15.6945 -39.0356 2.47824L41.5874 26.0566C37.6757 39.432 27.1286 47.5757 16.6399 50.1396L-3.30636 -31.4578ZM-39.0227 2.43448C-41.176 9.76786 -41.6213 17.5488 -41.773 20.221C-41.8874 22.2356 -41.9426 24.0113 -41.9702 25.2806C-41.9842 25.9254 -41.9916 26.4655 -41.9955 26.8707C-41.9975 27.0739 -41.9986 27.245 -41.9992 27.3802C-41.9996 27.4478 -41.9997 27.5066 -41.9999 27.5562C-41.9999 27.581 -41.9999 27.6035 -42 27.6236C-42 27.6337 -42 27.6432 -42 27.6521C-42 27.6565 -42 27.6608 -42 27.665C-42 27.6671 -42 27.6701 -42 27.6711C-42 27.6741 -42 27.677 0 27.677C42 27.677 42 27.6798 42 27.6827C42 27.6836 42 27.6863 42 27.6881C42 27.6917 42 27.6952 42 27.6986C42 27.7052 42 27.7114 42 27.7171C42 27.7285 42 27.738 41.9999 27.7455C41.9999 27.7605 41.9999 27.7679 41.9999 27.7681C41.9999 27.7684 42 27.7404 42.0005 27.6873C42.0016 27.5799 42.0041 27.3778 42.01 27.105C42.0223 26.539 42.0468 25.777 42.092 24.9823C42.1399 24.1376 42.1937 23.5708 42.225 23.316C42.296 22.7378 42.2014 23.9655 41.5746 26.1004L-39.0227 2.43448ZM0 27.677C-42 27.677 -42 27.6799 -42 27.6829C-42 27.6839 -42 27.6869 -42 27.689C-42 27.6931 -42 27.6974 -42 27.7019C-42 27.7108 -42 27.7202 -42 27.7303C-41.9999 27.7504 -41.9999 27.7729 -41.9999 27.7977C-41.9997 27.8473 -41.9996 27.9062 -41.9992 27.9738C-41.9986 28.109 -41.9975 28.28 -41.9955 28.4832C-41.9916 28.8885 -41.9842 29.4285 -41.9702 30.0734C-41.9426 31.3427 -41.8874 33.1183 -41.773 35.1329C-41.6213 37.8051 -41.176 45.5861 -39.0227 52.9195L41.5746 29.2536C42.2014 31.3884 42.296 32.6161 42.225 32.038C42.1937 31.7832 42.1399 31.2164 42.092 30.3716C42.0468 29.577 42.0223 28.815 42.01 28.2489C42.0041 27.9761 42.0016 27.7741 42.0005 27.6667C42 27.6135 41.9999 27.5856 41.9999 27.5859C41.9999 27.5861 41.9999 27.5935 41.9999 27.6085C42 27.616 42 27.6254 42 27.6368C42 27.6425 42 27.6487 42 27.6554C42 27.6587 42 27.6622 42 27.6658C42 27.6676 42 27.6704 42 27.6713C42 27.6741 42 27.677 0 27.677ZM-39.0325 52.8862C-33.7181 71.0405 -19.0478 82.9669 -3.2947 86.814L16.6334 5.2121C27.1354 7.77681 37.6729 15.9253 41.5843 29.2869L-39.0325 52.8862ZM-3.30363 86.8118C1.91476 88.0874 7.46402 88.4496 9.61097 88.5924C12.8505 88.808 16.2953 88.9353 19.2305 89.0148C22.2272 89.096 25.0158 89.1356 27.0357 89.1553C28.0533 89.1653 28.8943 89.1703 29.4915 89.1728C29.7904 89.1741 30.0294 89.1748 30.2 89.1751C30.2854 89.1753 30.3537 89.1754 30.404 89.1754C30.4292 89.1755 30.4498 89.1755 30.4659 89.1755C30.4739 89.1755 30.4808 89.1755 30.4865 89.1755C30.4893 89.1755 30.4919 89.1755 30.4941 89.1755C30.4952 89.1755 30.4967 89.1755 30.4973 89.1755C30.4987 89.1755 30.5 89.1755 30.5 47.1755C30.5 5.17549 30.5012 5.17549 30.5023 5.17549C30.5026 5.17549 30.5036 5.17549 30.5041 5.17549C30.5052 5.17549 30.5061 5.17549 30.5066 5.17549C30.5077 5.17549 30.5076 5.17549 30.5064 5.17549C30.5041 5.17549 30.4973 5.17548 30.4862 5.17547C30.4641 5.17545 30.4248 5.1754 30.3692 5.17529C30.2581 5.17507 30.0826 5.17459 29.8507 5.1736C29.3861 5.17162 28.6997 5.16756 27.8547 5.15932C26.1494 5.14269 23.8719 5.1097 21.5054 5.04559C19.0774 4.97981 16.8617 4.88914 15.1872 4.77773C12.4201 4.59363 13.8016 4.5199 16.6423 5.21428L-3.30363 86.8118ZM30.5 47.1755C30.5 89.1755 30.5013 89.1755 30.5027 89.1755C30.5033 89.1755 30.5048 89.1755 30.5059 89.1755C30.5081 89.1755 30.5107 89.1755 30.5135 89.1755C30.5192 89.1755 30.5261 89.1755 30.5341 89.1755C30.5502 89.1755 30.5708 89.1755 30.596 89.1754C30.6463 89.1754 30.7147 89.1753 30.8 89.1751C30.9706 89.1748 31.2096 89.1741 31.5085 89.1728C32.1057 89.1703 32.9467 89.1653 33.9644 89.1553C35.9843 89.1356 38.7729 89.096 41.7698 89.0148C44.7051 88.9353 48.15 88.808 51.3897 88.5925C53.5382 88.4495 59.085 88.0874 64.3012 86.8131L44.3653 5.21305C47.2024 4.5199 48.5805 4.59369 45.8143 4.7777C44.1392 4.88913 41.9232 4.9798 39.4949 5.04559C37.1283 5.1097 34.8507 5.14269 33.1453 5.15932C32.3003 5.16756 31.6139 5.17162 31.1493 5.1736C30.9174 5.17459 30.7419 5.17507 30.6308 5.17529C30.5752 5.1754 30.5359 5.17545 30.5138 5.17547C30.5027 5.17548 30.4959 5.17549 30.4936 5.17549C30.4924 5.17549 30.4923 5.17549 30.4934 5.17549C30.4939 5.17549 30.4948 5.17549 30.4959 5.17549C30.4964 5.17549 30.4974 5.17549 30.4977 5.17549C30.4988 5.17549 30.5 5.17549 30.5 47.1755ZM64.3064 86.8118C80.048 82.9638 94.7038 71.0498 100.027 52.915L19.4267 29.258C23.3414 15.9206 33.8644 7.77995 44.3601 5.21432L64.3064 86.8118ZM100.032 52.8978C102.178 45.573 102.622 37.8002 102.774 35.1282C102.888 33.1148 102.943 31.3401 102.97 30.0716C102.984 29.4271 102.992 28.8873 102.996 28.4824C102.998 28.2794 102.999 28.1085 102.999 27.9734C103 27.9058 103 27.8471 103 27.7975C103 27.7728 103 27.7503 103 27.7302C103 27.7202 103 27.7107 103 27.7018C103 27.6974 103 27.6931 103 27.6889C103 27.6869 103 27.6839 103 27.6828C103 27.6799 103 27.677 61 27.677C19 27.677 19 27.6741 19 27.6713C19 27.6704 19 27.6676 19 27.6658C19 27.6623 19 27.6588 19 27.6555C19 27.6488 19 27.6426 19 27.6369C19 27.6256 19.0001 27.6162 19.0001 27.6087C19.0001 27.5937 19.0001 27.5864 19.0001 27.5863C19.0001 27.5861 19 27.6142 18.9995 27.6675C18.9984 27.7752 18.9959 27.9776 18.99 28.2508C18.9777 28.8175 18.9532 29.5805 18.9081 30.3763C18.8602 31.2222 18.8063 31.7909 18.7748 32.048C18.7037 32.6281 18.7975 31.405 19.4216 29.2753L100.032 52.8978ZM61 27.677C103 27.677 103 27.674 103 27.6711C103 27.67 103 27.667 103 27.665C103 27.6608 103 27.6565 103 27.6521C103 27.6432 103 27.6337 103 27.6236C103 27.6035 103 27.581 103 27.5562C103 27.5066 103 27.4478 102.999 27.3801C102.999 27.245 102.997 27.0739 102.996 26.8707C102.992 26.4655 102.984 25.9254 102.97 25.2806C102.943 24.0113 102.887 22.2356 102.773 20.221C102.621 17.5488 102.176 9.76785 100.023 2.43448L19.4254 26.1004C18.7986 23.9655 18.704 22.7379 18.775 23.316C18.8063 23.5708 18.8601 24.1376 18.908 24.9824C18.9532 25.777 18.9777 26.539 18.99 27.105C18.9959 27.3778 18.9984 27.5799 18.9995 27.6873C19 27.7404 19.0001 27.7684 19.0001 27.7681C19.0001 27.7679 19.0001 27.7605 19.0001 27.7455C19.0001 27.738 19 27.7285 19 27.7171C19 27.7114 19 27.7053 19 27.6986C19 27.6952 19 27.6918 19 27.6882C19 27.6864 19 27.6836 19 27.6827C19 27.6798 19 27.677 61 27.677ZM66.2627 35.9086V19.4453H-17.7373V35.9086H66.2627ZM4.99264 56.7637L20.934 64.9954L59.4742 -9.64142L43.5329 -17.8731L4.99264 56.7637ZM20.934 -9.64142L4.99264 -1.40979L43.5329 73.227L59.4742 64.9954L20.934 -9.64142Z" fill="#22333B" mask="url(#path-1-inside-1_545_983)"/>
</g>
<defs>
<clipPath id="clip0_545_983">
<rect width="61" height="55.3542" fill="white"/>
</clipPath>
</defs>
</svg>
